<svg aria-label="Graphic" display="block" role="presentation" viewBox="0 0 103 24" xmlns="http://www.w3.org/2000/svg"><g d="M 0 0 L 103 0 L 103 23.918 L 0 23.918 Z M 92.308 23.876 C 91.691 23.876 91.27 23.82 90.541 23.679 L 90.541 21.435 C 91.018 21.491 91.27 21.519 91.719 21.519 C 92.813 21.519 94.104 20.958 94.665 18.713 L 88.885 4.544 L 91.887 4.544 L 96.068 15.486 L 96.124 15.486 L 100.052 4.544 L 102.942 4.544 L 97.275 19.19 C 95.9 22.725 94.525 23.876 92.308 23.876 Z M 88.49 11.39 C 88.49 11.783 88.49 12.204 88.462 12.428 L 77.463 12.428 C 77.519 14.813 78.922 17.03 81.756 17.03 C 84.281 17.03 85.263 15.402 85.515 14.448 L 88.321 14.448 C 87.564 17.198 85.459 19.275 81.699 19.275 C 77.154 19.275 74.629 16.048 74.629 11.671 C 74.629 7.181 77.322 4.095 81.699 4.095 C 86.049 4.095 88.49 6.957 88.49 11.39 Z M 69.522 1.228 L 69.522 18.854 L 72.272 18.854 L 72.272 0.25 Z M 63.686 1.187 L 63.686 18.854 L 66.436 18.854 L 66.436 0.209 Z M 77.463 10.268 L 85.628 10.268 C 85.628 8.023 84.056 6.339 81.615 6.339 C 79.315 6.339 77.631 7.911 77.463 10.268 Z M 52.736 19.246 C 49.874 19.246 48.051 17.591 48.051 15.15 C 48.051 11.951 50.464 10.997 54.027 10.324 C 56.272 9.903 57.647 9.623 57.647 8.22 C 57.647 7.181 57.029 6.312 54.925 6.312 C 52.428 6.312 51.67 7.097 51.53 9.005 L 48.724 9.005 C 48.864 6.256 50.66 4.095 55.037 4.095 C 57.983 4.095 60.34 5.33 60.34 9.033 L 60.34 15.599 C 60.34 16.637 60.48 17.17 61.013 17.17 C 61.098 17.17 61.182 17.17 61.35 17.142 L 61.35 18.826 C 60.873 18.938 60.396 18.994 59.947 18.994 C 58.573 18.994 57.843 18.461 57.675 16.833 L 57.619 16.833 C 56.693 18.32 55.065 19.246 52.736 19.246 Z M 53.354 17.03 C 55.823 17.03 57.647 15.767 57.647 13.27 L 57.647 11.222 C 57.198 11.643 55.963 11.951 54.504 12.26 C 51.979 12.765 50.913 13.466 50.913 14.954 C 50.913 16.3 51.642 17.03 53.354 17.03 Z M 42.25 18.992 L 39.163 18.992 L 34.057 4.682 L 37.003 4.682 L 40.763 16.158 L 40.791 16.158 L 44.495 4.682 L 47.357 4.682 L 42.25 18.992 Z M 23.233 2.528 L 16.701 9.06 L 25.834 9.06 L 25.834 12.282 L 19.588 12.282 L 16.533 9.228 L 14.254 6.95 L 20.954 0.25 Z M 2.658 18.546 L 12.947 8.257 L 14.188 9.498 L 15.226 10.536 L 23.301 18.612 L 21.023 20.89 L 14.557 14.424 L 14.557 23.425 L 11.335 23.425 L 11.335 14.426 L 4.937 20.824 Z M 9.355 9.223 L 6.296 12.282 L 0.057 12.282 L 0.057 9.06 L 9.192 9.06 L 2.727 2.595 L 5.006 0.316 L 11.634 6.944 L 9.359 9.219 Z" fill="transparent" height="23.918410041841003px" id="lNW6SsNkk" transform="translate(0 0.04)" width="103px"><path d="M 0 0 L 103 0 L 103 23.918 L 0 23.918 Z" fill="transparent" height="23.918410041841003px" id="vUSjJ_lFQ" width="103px"/><path d="M 58.251 23.667 C 57.634 23.667 57.213 23.611 56.484 23.47 L 56.484 21.226 C 56.961 21.282 57.213 21.31 57.662 21.31 C 58.756 21.31 60.047 20.749 60.608 18.504 L 54.828 4.335 L 57.83 4.335 L 62.011 15.277 L 62.067 15.277 L 65.995 4.335 L 68.885 4.335 L 63.218 18.981 C 61.843 22.516 60.468 23.667 58.251 23.667 Z M 54.433 11.181 C 54.433 11.574 54.433 11.995 54.405 12.219 L 43.406 12.219 C 43.462 14.604 44.865 16.821 47.699 16.821 C 50.224 16.821 51.206 15.193 51.458 14.239 L 54.264 14.239 C 53.507 16.989 51.402 19.066 47.642 19.066 C 43.097 19.066 40.572 15.839 40.572 11.462 C 40.572 6.972 43.265 3.886 47.642 3.886 C 51.992 3.886 54.433 6.748 54.433 11.181 Z M 35.465 1.019 L 35.465 18.645 L 38.215 18.645 L 38.215 0.041 Z M 29.629 0.978 L 29.629 18.645 L 32.379 18.645 L 32.379 0 Z M 43.406 10.059 L 51.571 10.059 C 51.571 7.814 49.999 6.13 47.558 6.13 C 45.258 6.13 43.574 7.702 43.406 10.059 Z M 18.679 19.037 C 15.817 19.037 13.994 17.382 13.994 14.941 C 13.994 11.742 16.407 10.788 19.97 10.115 C 22.215 9.694 23.59 9.414 23.59 8.011 C 23.59 6.972 22.972 6.103 20.868 6.103 C 18.371 6.103 17.613 6.888 17.473 8.796 L 14.667 8.796 C 14.807 6.047 16.603 3.886 20.98 3.886 C 23.926 3.886 26.283 5.121 26.283 8.824 L 26.283 15.39 C 26.283 16.428 26.423 16.961 26.956 16.961 C 27.041 16.961 27.125 16.961 27.293 16.933 L 27.293 18.616 C 26.816 18.729 26.339 18.785 25.89 18.785 C 24.516 18.785 23.786 18.252 23.618 16.624 L 23.562 16.624 C 22.636 18.111 21.008 19.037 18.679 19.037 Z M 19.297 16.821 C 21.766 16.821 23.59 15.558 23.59 13.061 L 23.59 11.013 C 23.141 11.434 21.906 11.742 20.447 12.051 C 17.922 12.556 16.856 13.257 16.856 14.745 C 16.856 16.091 17.585 16.821 19.297 16.821 Z M 8.193 18.783 L 5.106 18.783 L 0 4.473 L 2.946 4.473 L 6.706 15.949 L 6.734 15.949 L 10.438 4.473 L 13.299 4.473 L 8.193 18.783 Z" fill="rgb(0, 0, 0)" height="23.666727355031288px" id="l2AdXd8LU" transform="translate(34.057 0.209)" width="68.88523563362668px"/><path d="M 23.175 2.278 L 16.644 8.81 L 25.777 8.81 L 25.777 12.032 L 19.531 12.032 L 16.475 8.978 L 14.197 6.7 L 20.897 0 Z M 2.601 18.296 L 12.89 8.007 L 14.13 9.248 L 15.168 10.286 L 23.244 18.362 L 20.966 20.64 L 14.5 14.174 L 14.5 23.175 L 11.277 23.175 L 11.277 14.176 L 4.88 20.574 Z M 9.298 8.973 L 6.239 12.032 L 0 12.032 L 0 8.81 L 9.135 8.81 L 2.67 2.345 L 4.948 0.066 L 11.577 6.694 L 9.302 8.969 Z" fill="rgb(0, 0, 0)" height="23.175430977346505px" id="slSBMY0eW" transform="translate(0.057 0.25)" width="25.77715030184949px"/></g></svg>